Video
ID : 0
Codec ID : H264
Duration : 1h 17mn
Bit rate : 3 000 Kbps
Width : 1 280 pixels
Height : 720 pixels
Display aspect ratio : 16:9
Frame rate mode : Variable
Frame rate : 29.970 fps
Stream size : 1.61 GiB (94%)
Writing library : x264 core 112

Audio
ID : 1
Format : MPEG Audio
Codec ID/Hint : MP3
Duration : 1h 17mn
Bit rate mode : Constant
Bit rate : 192 Kbps
Channel(s) : 2 channels
Sampling rate : 48.0 KHz
Compression mode : Lossy
Stream size : 106 MiB (6%)